<mxfile host="65bd71144e">
    <diagram id="fID5XrkkOmG0yW3nTRED" name="0_Basics">
        <mxGraphModel dx="1230" dy="538" grid="1" gridSize="10" guides="1" tooltips="1" connect="1" arrows="1" fold="1" page="1" pageScale="1" pageWidth="827" pageHeight="1169" math="0" shadow="0">
            <root>
                <mxCell id="0"/>
                <mxCell id="1" parent="0"/>
                <mxCell id="5" value="Pizzeria" style="shape=umlFrame;whiteSpace=wrap;html=1;" parent="1" vertex="1">
                    <mxGeometry x="244" y="60" width="176" height="260" as="geometry"/>
                </mxCell>
                <mxCell id="6" value="Kunde" style="shape=umlActor;verticalLabelPosition=bottom;verticalAlign=top;html=1;" parent="1" vertex="1">
                    <mxGeometry x="450" y="100" width="30" height="60" as="geometry"/>
                </mxCell>
                <mxCell id="11" value="Fahrer" style="shape=umlActor;verticalLabelPosition=bottom;verticalAlign=top;html=1;" parent="1" vertex="1">
                    <mxGeometry x="530" y="100" width="30" height="60" as="geometry"/>
                </mxCell>
                <mxCell id="12" value="Mitarbeiter" style="shape=umlActor;verticalLabelPosition=bottom;verticalAlign=top;html=1;" parent="1" vertex="1">
                    <mxGeometry x="600" y="100" width="30" height="60" as="geometry"/>
                </mxCell>
                <mxCell id="14" value="Use Cases" style="ellipse;whiteSpace=wrap;html=1;" parent="1" vertex="1">
                    <mxGeometry x="480" y="220" width="140" height="70" as="geometry"/>
                </mxCell>
                <mxCell id="Ea-ihjxQeuI4r3jSx_sw-14" value="&amp;lt;&amp;lt;extend&amp;gt;&amp;gt;" style="html=1;verticalAlign=bottom;labelBackgroundColor=none;endArrow=open;endFill=0;dashed=1;entryX=0.5;entryY=1;entryDx=0;entryDy=0;startArrow=none;" parent="1" edge="1">
                    <mxGeometry width="160" relative="1" as="geometry">
                        <mxPoint x="710" y="240" as="sourcePoint"/>
                        <mxPoint x="710" y="140" as="targetPoint"/>
                    </mxGeometry>
                </mxCell>
                <mxCell id="XyiQ_vXTS__Dh81uZXIP-14" value="&amp;lt;&amp;lt;include&amp;gt;&amp;gt;" style="html=1;verticalAlign=bottom;labelBackgroundColor=none;endArrow=open;endFill=0;dashed=1;" parent="1" edge="1">
                    <mxGeometry width="160" relative="1" as="geometry">
                        <mxPoint x="780" y="140" as="sourcePoint"/>
                        <mxPoint x="780" y="240" as="targetPoint"/>
                    </mxGeometry>
                </mxCell>
                <mxCell id="09JRwPvSVgF2Zk7VVpmy-14" value="" style="endArrow=none;startArrow=none;endFill=0;startFill=0;endSize=8;html=1;verticalAlign=bottom;labelBackgroundColor=none;strokeWidth=1;" parent="1" edge="1">
                    <mxGeometry width="160" relative="1" as="geometry">
                        <mxPoint x="680" y="80" as="sourcePoint"/>
                        <mxPoint x="800" y="80" as="targetPoint"/>
                    </mxGeometry>
                </mxCell>
                <mxCell id="BfmF61Dufiul-V0XKSLx-18" value="Actor" style="shape=umlActor;verticalLabelPosition=bottom;verticalAlign=top;html=1;" parent="1" vertex="1">
                    <mxGeometry x="420" y="395" width="30" height="60" as="geometry"/>
                </mxCell>
                <mxCell id="BfmF61Dufiul-V0XKSLx-19" value="Use Case" style="ellipse;whiteSpace=wrap;html=1;" parent="1" vertex="1">
                    <mxGeometry x="540" y="395" width="110" height="60" as="geometry"/>
                </mxCell>
                <mxCell id="BfmF61Dufiul-V0XKSLx-20" value="" style="endArrow=none;startArrow=none;endFill=0;startFill=0;endSize=8;html=1;verticalAlign=bottom;labelBackgroundColor=none;strokeWidth=1;entryX=0;entryY=0.5;entryDx=0;entryDy=0;" parent="1" source="BfmF61Dufiul-V0XKSLx-18" target="BfmF61Dufiul-V0XKSLx-19" edge="1">
                    <mxGeometry width="160" relative="1" as="geometry">
                        <mxPoint x="440" y="380" as="sourcePoint"/>
                        <mxPoint x="560" y="380" as="targetPoint"/>
                    </mxGeometry>
                </mxCell>
                <mxCell id="BfmF61Dufiul-V0XKSLx-22" value="A" style="ellipse;whiteSpace=wrap;html=1;" parent="1" vertex="1">
                    <mxGeometry x="50" y="390" width="90" height="50" as="geometry"/>
                </mxCell>
                <mxCell id="BfmF61Dufiul-V0XKSLx-23" value="B" style="ellipse;whiteSpace=wrap;html=1;" parent="1" vertex="1">
                    <mxGeometry x="50" y="510" width="90" height="50" as="geometry"/>
                </mxCell>
                <mxCell id="BfmF61Dufiul-V0XKSLx-24" value="A" style="ellipse;whiteSpace=wrap;html=1;" parent="1" vertex="1">
                    <mxGeometry x="220" y="390" width="90" height="50" as="geometry"/>
                </mxCell>
                <mxCell id="BfmF61Dufiul-V0XKSLx-25" value="B" style="ellipse;whiteSpace=wrap;html=1;" parent="1" vertex="1">
                    <mxGeometry x="220" y="510" width="90" height="50" as="geometry"/>
                </mxCell>
                <mxCell id="BfmF61Dufiul-V0XKSLx-26" value="&amp;lt;&amp;lt;extend&amp;gt;&amp;gt;" style="html=1;verticalAlign=bottom;labelBackgroundColor=none;endArrow=open;endFill=0;dashed=1;entryX=0.5;entryY=1;entryDx=0;entryDy=0;startArrow=none;exitX=0.5;exitY=0;exitDx=0;exitDy=0;" parent="1" source="BfmF61Dufiul-V0XKSLx-23" target="BfmF61Dufiul-V0XKSLx-22" edge="1">
                    <mxGeometry width="160" relative="1" as="geometry">
                        <mxPoint x="140" y="360" as="sourcePoint"/>
                        <mxPoint x="140" y="260" as="targetPoint"/>
                        <Array as="points"/>
                    </mxGeometry>
                </mxCell>
                <mxCell id="BfmF61Dufiul-V0XKSLx-27" value="&amp;lt;&amp;lt;include&amp;gt;&amp;gt;" style="html=1;verticalAlign=bottom;labelBackgroundColor=none;endArrow=open;endFill=0;dashed=1;exitX=0.5;exitY=1;exitDx=0;exitDy=0;entryX=0.5;entryY=0;entryDx=0;entryDy=0;" parent="1" source="BfmF61Dufiul-V0XKSLx-24" target="BfmF61Dufiul-V0XKSLx-25" edge="1">
                    <mxGeometry width="160" relative="1" as="geometry">
                        <mxPoint x="200" y="420" as="sourcePoint"/>
                        <mxPoint x="200" y="520" as="targetPoint"/>
                    </mxGeometry>
                </mxCell>
                <mxCell id="BfmF61Dufiul-V0XKSLx-28" value="A" style="ellipse;whiteSpace=wrap;html=1;" parent="1" vertex="1">
                    <mxGeometry x="230" y="630" width="90" height="50" as="geometry"/>
                </mxCell>
                <mxCell id="BfmF61Dufiul-V0XKSLx-29" value="B" style="ellipse;whiteSpace=wrap;html=1;" parent="1" vertex="1">
                    <mxGeometry x="230" y="790" width="90" height="50" as="geometry"/>
                </mxCell>
                <mxCell id="BfmF61Dufiul-V0XKSLx-30" value="&amp;lt;&amp;lt;extend&amp;gt;&amp;gt;" style="html=1;verticalAlign=bottom;labelBackgroundColor=none;endArrow=open;endFill=0;dashed=1;entryX=0.5;entryY=1;entryDx=0;entryDy=0;startArrow=none;exitX=0.5;exitY=0;exitDx=0;exitDy=0;" parent="1" source="mU5p5i_3i8LctqjxRwrs-16" target="BfmF61Dufiul-V0XKSLx-28" edge="1">
                    <mxGeometry width="160" relative="1" as="geometry">
                        <mxPoint x="320" y="600" as="sourcePoint"/>
                        <mxPoint x="320" y="500" as="targetPoint"/>
                        <Array as="points"/>
                    </mxGeometry>
                </mxCell>
                <mxCell id="mU5p5i_3i8LctqjxRwrs-14" value="condition:&lt;br&gt;if ...." style="html=1;" parent="1" vertex="1">
                    <mxGeometry x="90" y="720" width="110" height="50" as="geometry"/>
                </mxCell>
                <mxCell id="mU5p5i_3i8LctqjxRwrs-15" value="" style="endArrow=none;startArrow=none;endFill=0;startFill=0;endSize=8;html=1;verticalAlign=bottom;labelBackgroundColor=none;strokeWidth=1;exitX=1;exitY=0.5;exitDx=0;exitDy=0;" parent="1" source="mU5p5i_3i8LctqjxRwrs-14" edge="1">
                    <mxGeometry width="160" relative="1" as="geometry">
                        <mxPoint x="600" y="590" as="sourcePoint"/>
                        <mxPoint x="274" y="745" as="targetPoint"/>
                    </mxGeometry>
                </mxCell>
                <mxCell id="mU5p5i_3i8LctqjxRwrs-16" value="" style="ellipse;fillColor=#ffffff;strokeColor=#000000;" parent="1" vertex="1">
                    <mxGeometry x="270" y="740" width="10" height="10" as="geometry"/>
                </mxCell>
                <mxCell id="mU5p5i_3i8LctqjxRwrs-17" value="" style="html=1;verticalAlign=bottom;labelBackgroundColor=none;endArrow=none;endFill=0;dashed=1;entryX=0.5;entryY=1;entryDx=0;entryDy=0;startArrow=none;exitX=0.5;exitY=0;exitDx=0;exitDy=0;" parent="1" source="BfmF61Dufiul-V0XKSLx-29" target="mU5p5i_3i8LctqjxRwrs-16" edge="1">
                    <mxGeometry width="160" relative="1" as="geometry">
                        <mxPoint x="275" y="790" as="sourcePoint"/>
                        <mxPoint x="275" y="680" as="targetPoint"/>
                        <Array as="points"/>
                    </mxGeometry>
                </mxCell>
            </root>
        </mxGraphModel>
    </diagram>
    <diagram id="Z7jk2MQYCWWER3911mL_" name="1_Bestellung">
        <mxGraphModel dx="1230" dy="1707" grid="1" gridSize="10" guides="1" tooltips="1" connect="1" arrows="1" fold="1" page="1" pageScale="1" pageWidth="827" pageHeight="1169" math="0" shadow="0">
            <root>
                <mxCell id="C_n_cLBBMKCVEJXWwuyR-0"/>
                <mxCell id="C_n_cLBBMKCVEJXWwuyR-1" parent="C_n_cLBBMKCVEJXWwuyR-0"/>
                <mxCell id="b8RMZlHBxvMfL_G6eXnR-0" value="Kunde" style="shape=umlActor;verticalLabelPosition=bottom;verticalAlign=top;html=1;" vertex="1" parent="C_n_cLBBMKCVEJXWwuyR-1">
                    <mxGeometry x="675" y="160" width="40" height="80" as="geometry"/>
                </mxCell>
                <mxCell id="b8RMZlHBxvMfL_G6eXnR-2" value="Mitarbeiter" style="shape=umlActor;verticalLabelPosition=bottom;verticalAlign=top;html=1;" vertex="1" parent="C_n_cLBBMKCVEJXWwuyR-1">
                    <mxGeometry x="125" y="165" width="35" height="70" as="geometry"/>
                </mxCell>
                <mxCell id="b8RMZlHBxvMfL_G6eXnR-3" value="Bestellanruf" style="ellipse;whiteSpace=wrap;html=1;" vertex="1" parent="C_n_cLBBMKCVEJXWwuyR-1">
                    <mxGeometry x="345" y="165" width="140" height="70" as="geometry"/>
                </mxCell>
                <mxCell id="b8RMZlHBxvMfL_G6eXnR-4" value="" style="endArrow=none;startArrow=none;endFill=0;startFill=0;endSize=8;html=1;verticalAlign=bottom;labelBackgroundColor=none;strokeWidth=1;entryX=0;entryY=0.5;entryDx=0;entryDy=0;" edge="1" parent="C_n_cLBBMKCVEJXWwuyR-1" source="b8RMZlHBxvMfL_G6eXnR-2" target="b8RMZlHBxvMfL_G6eXnR-3">
                    <mxGeometry width="160" relative="1" as="geometry">
                        <mxPoint x="205" y="199.5" as="sourcePoint"/>
                        <mxPoint x="279" y="199.5" as="targetPoint"/>
                    </mxGeometry>
                </mxCell>
                <mxCell id="b8RMZlHBxvMfL_G6eXnR-5" value="" style="endArrow=none;startArrow=none;endFill=0;startFill=0;endSize=8;html=1;verticalAlign=bottom;labelBackgroundColor=none;strokeWidth=1;exitX=1;exitY=0.5;exitDx=0;exitDy=0;" edge="1" parent="C_n_cLBBMKCVEJXWwuyR-1" source="b8RMZlHBxvMfL_G6eXnR-3" target="b8RMZlHBxvMfL_G6eXnR-0">
                    <mxGeometry width="160" relative="1" as="geometry">
                        <mxPoint x="435" y="265" as="sourcePoint"/>
                        <mxPoint x="509" y="265" as="targetPoint"/>
                    </mxGeometry>
                </mxCell>
                <mxCell id="b8RMZlHBxvMfL_G6eXnR-8" value="Kundendaten erfassen" style="ellipse;whiteSpace=wrap;html=1;" vertex="1" parent="C_n_cLBBMKCVEJXWwuyR-1">
                    <mxGeometry x="345" y="405" width="140" height="70" as="geometry"/>
                </mxCell>
                <mxCell id="b8RMZlHBxvMfL_G6eXnR-9" value="&amp;lt;&amp;lt;extend&amp;gt;&amp;gt;" style="html=1;verticalAlign=bottom;labelBackgroundColor=none;endArrow=open;endFill=0;dashed=1;entryX=0.5;entryY=1;entryDx=0;entryDy=0;startArrow=none;exitX=0.5;exitY=0;exitDx=0;exitDy=0;" edge="1" parent="C_n_cLBBMKCVEJXWwuyR-1" source="b8RMZlHBxvMfL_G6eXnR-8" target="b8RMZlHBxvMfL_G6eXnR-3">
                    <mxGeometry width="160" relative="1" as="geometry">
                        <mxPoint x="465" y="315" as="sourcePoint"/>
                        <mxPoint x="465" y="215" as="targetPoint"/>
                    </mxGeometry>
                </mxCell>
                <mxCell id="b8RMZlHBxvMfL_G6eXnR-10" value="condition:&lt;br&gt;Kunde neu" style="html=1;" vertex="1" parent="C_n_cLBBMKCVEJXWwuyR-1">
                    <mxGeometry x="50" y="305" width="110" height="50" as="geometry"/>
                </mxCell>
                <mxCell id="tFnr2teSaJdfsYIGNVMU-0" value="" style="ellipse;fillColor=#ffffff;strokeColor=#000000;" vertex="1" parent="C_n_cLBBMKCVEJXWwuyR-1">
                    <mxGeometry x="410" y="325" width="10" height="10" as="geometry"/>
                </mxCell>
                <mxCell id="tFnr2teSaJdfsYIGNVMU-1" value="" style="endArrow=none;startArrow=none;endFill=0;startFill=0;endSize=8;html=1;verticalAlign=bottom;labelBackgroundColor=none;strokeWidth=1;exitX=1;exitY=0.5;exitDx=0;exitDy=0;entryX=1;entryY=0.5;entryDx=0;entryDy=0;" edge="1" parent="C_n_cLBBMKCVEJXWwuyR-1" source="b8RMZlHBxvMfL_G6eXnR-10" target="tFnr2teSaJdfsYIGNVMU-0">
                    <mxGeometry width="160" relative="1" as="geometry">
                        <mxPoint x="435" y="265" as="sourcePoint"/>
                        <mxPoint x="509" y="265" as="targetPoint"/>
                    </mxGeometry>
                </mxCell>
                <mxCell id="tFnr2teSaJdfsYIGNVMU-2" value="" style="endArrow=none;startArrow=none;endFill=0;startFill=0;endSize=8;html=1;verticalAlign=bottom;labelBackgroundColor=none;strokeWidth=1;entryX=0;entryY=0.5;entryDx=0;entryDy=0;" edge="1" parent="C_n_cLBBMKCVEJXWwuyR-1" source="b8RMZlHBxvMfL_G6eXnR-2" target="b8RMZlHBxvMfL_G6eXnR-8">
                    <mxGeometry width="160" relative="1" as="geometry">
                        <mxPoint x="435" y="265" as="sourcePoint"/>
                        <mxPoint x="509" y="265" as="targetPoint"/>
                    </mxGeometry>
                </mxCell>
                <mxCell id="tFnr2teSaJdfsYIGNVMU-3" value="" style="endArrow=none;startArrow=none;endFill=0;startFill=0;endSize=8;html=1;verticalAlign=bottom;labelBackgroundColor=none;strokeWidth=1;exitX=1;exitY=0.5;exitDx=0;exitDy=0;" edge="1" parent="C_n_cLBBMKCVEJXWwuyR-1" source="b8RMZlHBxvMfL_G6eXnR-8" target="b8RMZlHBxvMfL_G6eXnR-0">
                    <mxGeometry width="160" relative="1" as="geometry">
                        <mxPoint x="435" y="265" as="sourcePoint"/>
                        <mxPoint x="675" y="195" as="targetPoint"/>
                    </mxGeometry>
                </mxCell>
                <mxCell id="tFnr2teSaJdfsYIGNVMU-4" value="&lt;h1&gt;&lt;p dir=&quot;auto&quot; style=&quot;box-sizing: border-box ; margin-top: 0px ; margin-bottom: 16px ; color: rgb(36 , 41 , 47) ; font-family: , &amp;#34;blinkmacsystemfont&amp;#34; , &amp;#34;segoe ui&amp;#34; , &amp;#34;helvetica&amp;#34; , &amp;#34;arial&amp;#34; , sans-serif , &amp;#34;apple color emoji&amp;#34; , &amp;#34;segoe ui emoji&amp;#34; ; font-size: 16px ; font-weight: 400 ; background-color: rgb(255 , 255 , 255)&quot;&gt;Nach dem Anruf eines Kunden soll geprüft werden, ob der Kunde neu ist.&lt;/p&gt;&lt;p dir=&quot;auto&quot; style=&quot;box-sizing: border-box ; margin-top: 0px ; margin-bottom: 16px ; color: rgb(36 , 41 , 47) ; font-family: , &amp;#34;blinkmacsystemfont&amp;#34; , &amp;#34;segoe ui&amp;#34; , &amp;#34;helvetica&amp;#34; , &amp;#34;arial&amp;#34; , sans-serif , &amp;#34;apple color emoji&amp;#34; , &amp;#34;segoe ui emoji&amp;#34; ; font-size: 16px ; font-weight: 400 ; background-color: rgb(255 , 255 , 255)&quot;&gt;Falls ja, so sollen die Kunden­daten erfasst werden.&lt;/p&gt;&lt;/h1&gt;" style="text;html=1;strokeColor=none;fillColor=none;spacing=5;spacingTop=-20;whiteSpace=wrap;overflow=hidden;rounded=0;" vertex="1" parent="C_n_cLBBMKCVEJXWwuyR-1">
                    <mxGeometry x="175" width="525" height="90" as="geometry"/>
                </mxCell>
            </root>
        </mxGraphModel>
    </diagram>
    <diagram id="QA6a6m-gNgqABAPTKYIQ" name="2_Liefer_Entscheidung">
        <mxGraphModel dx="1230" dy="1707" grid="1" gridSize="10" guides="1" tooltips="1" connect="1" arrows="1" fold="1" page="1" pageScale="1" pageWidth="827" pageHeight="1169" math="0" shadow="0">
            <root>
                <mxCell id="EAMyYIVlu8qeIecesVwY-0"/>
                <mxCell id="EAMyYIVlu8qeIecesVwY-1" parent="EAMyYIVlu8qeIecesVwY-0"/>
                <mxCell id="iuckPA5fxCYEIlunZUqe-0" value="Kunde" style="shape=umlActor;verticalLabelPosition=bottom;verticalAlign=top;html=1;" vertex="1" parent="EAMyYIVlu8qeIecesVwY-1">
                    <mxGeometry x="720" y="220" width="30" height="60" as="geometry"/>
                </mxCell>
                <mxCell id="iuckPA5fxCYEIlunZUqe-1" value="Fahrer" style="shape=umlActor;verticalLabelPosition=bottom;verticalAlign=top;html=1;" vertex="1" parent="EAMyYIVlu8qeIecesVwY-1">
                    <mxGeometry x="90" y="330" width="30" height="60" as="geometry"/>
                </mxCell>
                <mxCell id="iuckPA5fxCYEIlunZUqe-2" value="Mitarbeiter" style="shape=umlActor;verticalLabelPosition=bottom;verticalAlign=top;html=1;" vertex="1" parent="EAMyYIVlu8qeIecesVwY-1">
                    <mxGeometry x="150" y="130" width="30" height="60" as="geometry"/>
                </mxCell>
                <mxCell id="iuckPA5fxCYEIlunZUqe-3" value="Bestellung aufnehmen" style="ellipse;whiteSpace=wrap;html=1;" vertex="1" parent="EAMyYIVlu8qeIecesVwY-1">
                    <mxGeometry x="367.5" y="140" width="140" height="70" as="geometry"/>
                </mxCell>
                <mxCell id="GlvMeEbtfi5l3ZdQN9ti-0" value="&lt;h1&gt;&lt;p dir=&quot;auto&quot; style=&quot;box-sizing: border-box ; margin-top: 0px ; margin-bottom: 16px ; color: rgb(36 , 41 , 47) ; font-family: , &amp;#34;blinkmacsystemfont&amp;#34; , &amp;#34;segoe ui&amp;#34; , &amp;#34;helvetica&amp;#34; , &amp;#34;arial&amp;#34; , sans-serif , &amp;#34;apple color emoji&amp;#34; , &amp;#34;segoe ui emoji&amp;#34; ; font-size: 16px ; font-weight: 400 ; background-color: rgb(255 , 255 , 255)&quot;&gt;Dann werden die Bestelldaten aufgenommen.&lt;/p&gt;&lt;p dir=&quot;auto&quot; style=&quot;box-sizing: border-box ; margin-top: 0px ; margin-bottom: 16px ; color: rgb(36 , 41 , 47) ; font-family: , &amp;#34;blinkmacsystemfont&amp;#34; , &amp;#34;segoe ui&amp;#34; , &amp;#34;helvetica&amp;#34; , &amp;#34;arial&amp;#34; , sans-serif , &amp;#34;apple color emoji&amp;#34; , &amp;#34;segoe ui emoji&amp;#34; ; font-size: 16px ; font-weight: 400 ; background-color: rgb(255 , 255 , 255)&quot;&gt;Der Kunde kann entscheiden, ob er die Bestellung selbst abholen will, oder eine Auslieferung erfolgen soll.&lt;/p&gt;&lt;/h1&gt;" style="text;html=1;strokeColor=none;fillColor=none;spacing=5;spacingTop=-20;whiteSpace=wrap;overflow=hidden;rounded=0;" vertex="1" parent="EAMyYIVlu8qeIecesVwY-1">
                    <mxGeometry x="175" width="525" height="90" as="geometry"/>
                </mxCell>
                <mxCell id="GlvMeEbtfi5l3ZdQN9ti-1" value="" style="endArrow=none;startArrow=none;endFill=0;startFill=0;endSize=8;html=1;verticalAlign=bottom;labelBackgroundColor=none;strokeWidth=1;entryX=0;entryY=0.5;entryDx=0;entryDy=0;" edge="1" parent="EAMyYIVlu8qeIecesVwY-1" source="iuckPA5fxCYEIlunZUqe-2" target="iuckPA5fxCYEIlunZUqe-3">
                    <mxGeometry width="160" relative="1" as="geometry">
                        <mxPoint x="380" y="200" as="sourcePoint"/>
                        <mxPoint x="454" y="200" as="targetPoint"/>
                    </mxGeometry>
                </mxCell>
                <mxCell id="GlvMeEbtfi5l3ZdQN9ti-2" value="" style="endArrow=none;startArrow=none;endFill=0;startFill=0;endSize=8;html=1;verticalAlign=bottom;labelBackgroundColor=none;strokeWidth=1;exitX=1;exitY=0.5;exitDx=0;exitDy=0;" edge="1" parent="EAMyYIVlu8qeIecesVwY-1" source="iuckPA5fxCYEIlunZUqe-3" target="iuckPA5fxCYEIlunZUqe-0">
                    <mxGeometry width="160" relative="1" as="geometry">
                        <mxPoint x="380" y="200" as="sourcePoint"/>
                        <mxPoint x="454" y="200" as="targetPoint"/>
                    </mxGeometry>
                </mxCell>
                <mxCell id="GlvMeEbtfi5l3ZdQN9ti-3" value="Lieferung nach Hause" style="ellipse;whiteSpace=wrap;html=1;" vertex="1" parent="EAMyYIVlu8qeIecesVwY-1">
                    <mxGeometry x="250" y="360" width="140" height="70" as="geometry"/>
                </mxCell>
                <mxCell id="GlvMeEbtfi5l3ZdQN9ti-4" value="Selbstabholung" style="ellipse;whiteSpace=wrap;html=1;" vertex="1" parent="EAMyYIVlu8qeIecesVwY-1">
                    <mxGeometry x="470" y="360" width="140" height="70" as="geometry"/>
                </mxCell>
                <mxCell id="GlvMeEbtfi5l3ZdQN9ti-5" value="" style="endArrow=none;startArrow=none;endFill=0;startFill=0;endSize=8;html=1;verticalAlign=bottom;labelBackgroundColor=none;strokeWidth=1;entryX=0;entryY=0.5;entryDx=0;entryDy=0;" edge="1" parent="EAMyYIVlu8qeIecesVwY-1" source="iuckPA5fxCYEIlunZUqe-1" target="GlvMeEbtfi5l3ZdQN9ti-3">
                    <mxGeometry width="160" relative="1" as="geometry">
                        <mxPoint x="380" y="200" as="sourcePoint"/>
                        <mxPoint x="454" y="200" as="targetPoint"/>
                    </mxGeometry>
                </mxCell>
                <mxCell id="GlvMeEbtfi5l3ZdQN9ti-6" value="" style="endArrow=none;startArrow=none;endFill=0;startFill=0;endSize=8;html=1;verticalAlign=bottom;labelBackgroundColor=none;strokeWidth=1;exitX=1;exitY=0.5;exitDx=0;exitDy=0;" edge="1" parent="EAMyYIVlu8qeIecesVwY-1" source="GlvMeEbtfi5l3ZdQN9ti-4" target="iuckPA5fxCYEIlunZUqe-0">
                    <mxGeometry width="160" relative="1" as="geometry">
                        <mxPoint x="380" y="200" as="sourcePoint"/>
                        <mxPoint x="454" y="200" as="targetPoint"/>
                    </mxGeometry>
                </mxCell>
                <mxCell id="GlvMeEbtfi5l3ZdQN9ti-7" value="&amp;lt;&amp;lt;extend&amp;gt;&amp;gt;" style="html=1;verticalAlign=bottom;labelBackgroundColor=none;endArrow=open;endFill=0;dashed=1;entryX=0.274;entryY=0.986;entryDx=0;entryDy=0;startArrow=none;exitX=0.5;exitY=0;exitDx=0;exitDy=0;entryPerimeter=0;" edge="1" parent="EAMyYIVlu8qeIecesVwY-1" source="GlvMeEbtfi5l3ZdQN9ti-3" target="iuckPA5fxCYEIlunZUqe-3">
                    <mxGeometry width="160" relative="1" as="geometry">
                        <mxPoint x="410" y="250" as="sourcePoint"/>
                        <mxPoint x="410" y="150" as="targetPoint"/>
                    </mxGeometry>
                </mxCell>
                <mxCell id="GlvMeEbtfi5l3ZdQN9ti-8" value="&amp;lt;&amp;lt;extend&amp;gt;&amp;gt;" style="html=1;verticalAlign=bottom;labelBackgroundColor=none;endArrow=open;endFill=0;dashed=1;entryX=0.669;entryY=1.009;entryDx=0;entryDy=0;startArrow=none;entryPerimeter=0;" edge="1" parent="EAMyYIVlu8qeIecesVwY-1" source="GlvMeEbtfi5l3ZdQN9ti-4" target="iuckPA5fxCYEIlunZUqe-3">
                    <mxGeometry width="160" relative="1" as="geometry">
                        <mxPoint x="410" y="250" as="sourcePoint"/>
                        <mxPoint x="410" y="150" as="targetPoint"/>
                    </mxGeometry>
                </mxCell>
                <mxCell id="GlvMeEbtfi5l3ZdQN9ti-9" value="condition:&lt;br&gt;Kd. will Lieferung" style="html=1;" vertex="1" parent="EAMyYIVlu8qeIecesVwY-1">
                    <mxGeometry x="180" y="240" width="110" height="50" as="geometry"/>
                </mxCell>
                <mxCell id="GlvMeEbtfi5l3ZdQN9ti-10" value="condition:&lt;br&gt;Kd. will selber &lt;br&gt;abholen" style="html=1;" vertex="1" parent="EAMyYIVlu8qeIecesVwY-1">
                    <mxGeometry x="550" y="240" width="110" height="70" as="geometry"/>
                </mxCell>
                <mxCell id="GlvMeEbtfi5l3ZdQN9ti-11" value="" style="endArrow=none;startArrow=none;endFill=0;startFill=0;endSize=8;html=1;verticalAlign=bottom;labelBackgroundColor=none;strokeWidth=1;exitX=1;exitY=0.5;exitDx=0;exitDy=0;" edge="1" parent="EAMyYIVlu8qeIecesVwY-1" source="GlvMeEbtfi5l3ZdQN9ti-13">
                    <mxGeometry width="160" relative="1" as="geometry">
                        <mxPoint x="380" y="190" as="sourcePoint"/>
                        <mxPoint x="350" y="310" as="targetPoint"/>
                    </mxGeometry>
                </mxCell>
                <mxCell id="GlvMeEbtfi5l3ZdQN9ti-12" value="" style="endArrow=none;startArrow=none;endFill=0;startFill=0;endSize=8;html=1;verticalAlign=bottom;labelBackgroundColor=none;strokeWidth=1;entryX=0;entryY=0.5;entryDx=0;entryDy=0;" edge="1" parent="EAMyYIVlu8qeIecesVwY-1" source="GlvMeEbtfi5l3ZdQN9ti-15" target="GlvMeEbtfi5l3ZdQN9ti-10">
                    <mxGeometry width="160" relative="1" as="geometry">
                        <mxPoint x="500" y="300" as="sourcePoint"/>
                        <mxPoint x="454" y="190" as="targetPoint"/>
                    </mxGeometry>
                </mxCell>
                <mxCell id="GlvMeEbtfi5l3ZdQN9ti-13" value="" style="ellipse;fillColor=#ffffff;strokeColor=#000000;" vertex="1" parent="EAMyYIVlu8qeIecesVwY-1">
                    <mxGeometry x="344" y="303" width="10" height="10" as="geometry"/>
                </mxCell>
                <mxCell id="GlvMeEbtfi5l3ZdQN9ti-14" value="" style="endArrow=none;startArrow=none;endFill=0;startFill=0;endSize=8;html=1;verticalAlign=bottom;labelBackgroundColor=none;strokeWidth=1;exitX=1;exitY=0.5;exitDx=0;exitDy=0;" edge="1" parent="EAMyYIVlu8qeIecesVwY-1" source="GlvMeEbtfi5l3ZdQN9ti-9" target="GlvMeEbtfi5l3ZdQN9ti-13">
                    <mxGeometry width="160" relative="1" as="geometry">
                        <mxPoint x="290" y="265" as="sourcePoint"/>
                        <mxPoint x="350" y="310" as="targetPoint"/>
                    </mxGeometry>
                </mxCell>
                <mxCell id="GlvMeEbtfi5l3ZdQN9ti-15" value="" style="ellipse;fillColor=#ffffff;strokeColor=#000000;" vertex="1" parent="EAMyYIVlu8qeIecesVwY-1">
                    <mxGeometry x="494.5" y="294" width="10" height="10" as="geometry"/>
                </mxCell>
                <mxCell id="GlvMeEbtfi5l3ZdQN9ti-16" value="" style="endArrow=none;startArrow=none;endFill=0;startFill=0;endSize=8;html=1;verticalAlign=bottom;labelBackgroundColor=none;strokeWidth=1;entryX=0;entryY=0.5;entryDx=0;entryDy=0;" edge="1" parent="EAMyYIVlu8qeIecesVwY-1" target="GlvMeEbtfi5l3ZdQN9ti-15">
                    <mxGeometry width="160" relative="1" as="geometry">
                        <mxPoint x="500" y="300" as="sourcePoint"/>
                        <mxPoint x="550" y="275" as="targetPoint"/>
                    </mxGeometry>
                </mxCell>
            </root>
        </mxGraphModel>
    </diagram>
    <diagram name="3_Lieferung / SMS" id="RN7_Kw_fv9luZD4ERpub">
        <mxGraphModel dx="1230" dy="1707" grid="1" gridSize="10" guides="1" tooltips="1" connect="1" arrows="1" fold="1" page="1" pageScale="1" pageWidth="827" pageHeight="1169" math="0" shadow="0">
            <root>
                <mxCell id="q40dijsxq2S9NQWSFBcL-0"/>
                <mxCell id="q40dijsxq2S9NQWSFBcL-1" parent="q40dijsxq2S9NQWSFBcL-0"/>
                <mxCell id="q40dijsxq2S9NQWSFBcL-2" value="Kunde" style="shape=umlActor;verticalLabelPosition=bottom;verticalAlign=top;html=1;" vertex="1" parent="q40dijsxq2S9NQWSFBcL-1">
                    <mxGeometry x="720" y="220" width="30" height="60" as="geometry"/>
                </mxCell>
                <mxCell id="q40dijsxq2S9NQWSFBcL-3" value="Fahrer" style="shape=umlActor;verticalLabelPosition=bottom;verticalAlign=top;html=1;" vertex="1" parent="q40dijsxq2S9NQWSFBcL-1">
                    <mxGeometry x="90" y="340" width="30" height="60" as="geometry"/>
                </mxCell>
                <mxCell id="q40dijsxq2S9NQWSFBcL-4" value="Mitarbeiter" style="shape=umlActor;verticalLabelPosition=bottom;verticalAlign=top;html=1;" vertex="1" parent="q40dijsxq2S9NQWSFBcL-1">
                    <mxGeometry x="150" y="130" width="30" height="60" as="geometry"/>
                </mxCell>
                <mxCell id="q40dijsxq2S9NQWSFBcL-5" value="Bestellung aufnehmen" style="ellipse;whiteSpace=wrap;html=1;" vertex="1" parent="q40dijsxq2S9NQWSFBcL-1">
                    <mxGeometry x="367.5" y="140" width="140" height="70" as="geometry"/>
                </mxCell>
                <mxCell id="q40dijsxq2S9NQWSFBcL-6" value="&lt;h1&gt;&lt;p dir=&quot;auto&quot; style=&quot;box-sizing: border-box ; margin-top: 0px ; margin-bottom: 16px ; color: rgb(36 , 41 , 47) ; font-family: , &amp;#34;blinkmacsystemfont&amp;#34; , &amp;#34;segoe ui&amp;#34; , &amp;#34;helvetica&amp;#34; , &amp;#34;arial&amp;#34; , sans-serif , &amp;#34;apple color emoji&amp;#34; , &amp;#34;segoe ui emoji&amp;#34; ; font-size: 16px ; font-weight: 400 ; background-color: rgb(255 , 255 , 255)&quot;&gt;&lt;span style=&quot;font-family: , &amp;#34;blinkmacsystemfont&amp;#34; , &amp;#34;segoe ui&amp;#34; , &amp;#34;helvetica&amp;#34; , &amp;#34;arial&amp;#34; , sans-serif , &amp;#34;apple color emoji&amp;#34; , &amp;#34;segoe ui emoji&amp;#34;&quot;&gt;Im zweiten Fall liefert der Aus­lieferungsfahrer die Pizza aus. Die Auslieferung der Bestellung beinhaltet, dass der Auslieferungsfahrer nach der Zustellung eine SMS mit der Bestellnummer der erfolgten Lieferung an die Pizzeria sendet.&lt;/span&gt;&lt;br&gt;&lt;/p&gt;&lt;/h1&gt;" style="text;html=1;strokeColor=none;fillColor=none;spacing=5;spacingTop=-20;whiteSpace=wrap;overflow=hidden;rounded=0;" vertex="1" parent="q40dijsxq2S9NQWSFBcL-1">
                    <mxGeometry x="175" width="525" height="90" as="geometry"/>
                </mxCell>
                <mxCell id="q40dijsxq2S9NQWSFBcL-7" value="" style="endArrow=none;startArrow=none;endFill=0;startFill=0;endSize=8;html=1;verticalAlign=bottom;labelBackgroundColor=none;strokeWidth=1;entryX=0;entryY=0.5;entryDx=0;entryDy=0;" edge="1" parent="q40dijsxq2S9NQWSFBcL-1" source="q40dijsxq2S9NQWSFBcL-4" target="q40dijsxq2S9NQWSFBcL-5">
                    <mxGeometry width="160" relative="1" as="geometry">
                        <mxPoint x="380" y="200" as="sourcePoint"/>
                        <mxPoint x="454" y="200" as="targetPoint"/>
                    </mxGeometry>
                </mxCell>
                <mxCell id="q40dijsxq2S9NQWSFBcL-8" value="" style="endArrow=none;startArrow=none;endFill=0;startFill=0;endSize=8;html=1;verticalAlign=bottom;labelBackgroundColor=none;strokeWidth=1;exitX=1;exitY=0.5;exitDx=0;exitDy=0;" edge="1" parent="q40dijsxq2S9NQWSFBcL-1" source="q40dijsxq2S9NQWSFBcL-5" target="q40dijsxq2S9NQWSFBcL-2">
                    <mxGeometry width="160" relative="1" as="geometry">
                        <mxPoint x="380" y="200" as="sourcePoint"/>
                        <mxPoint x="454" y="200" as="targetPoint"/>
                    </mxGeometry>
                </mxCell>
                <mxCell id="q40dijsxq2S9NQWSFBcL-9" value="Lieferung nach Hause" style="ellipse;whiteSpace=wrap;html=1;" vertex="1" parent="q40dijsxq2S9NQWSFBcL-1">
                    <mxGeometry x="250" y="360" width="140" height="70" as="geometry"/>
                </mxCell>
                <mxCell id="q40dijsxq2S9NQWSFBcL-10" value="Selbstabholung" style="ellipse;whiteSpace=wrap;html=1;" vertex="1" parent="q40dijsxq2S9NQWSFBcL-1">
                    <mxGeometry x="470" y="360" width="140" height="70" as="geometry"/>
                </mxCell>
                <mxCell id="q40dijsxq2S9NQWSFBcL-11" value="" style="endArrow=none;startArrow=none;endFill=0;startFill=0;endSize=8;html=1;verticalAlign=bottom;labelBackgroundColor=none;strokeWidth=1;entryX=0;entryY=0.5;entryDx=0;entryDy=0;" edge="1" parent="q40dijsxq2S9NQWSFBcL-1" source="q40dijsxq2S9NQWSFBcL-3" target="q40dijsxq2S9NQWSFBcL-9">
                    <mxGeometry width="160" relative="1" as="geometry">
                        <mxPoint x="380" y="200" as="sourcePoint"/>
                        <mxPoint x="454" y="200" as="targetPoint"/>
                    </mxGeometry>
                </mxCell>
                <mxCell id="q40dijsxq2S9NQWSFBcL-12" value="" style="endArrow=none;startArrow=none;endFill=0;startFill=0;endSize=8;html=1;verticalAlign=bottom;labelBackgroundColor=none;strokeWidth=1;exitX=1;exitY=0.5;exitDx=0;exitDy=0;" edge="1" parent="q40dijsxq2S9NQWSFBcL-1" source="q40dijsxq2S9NQWSFBcL-10" target="q40dijsxq2S9NQWSFBcL-2">
                    <mxGeometry width="160" relative="1" as="geometry">
                        <mxPoint x="380" y="200" as="sourcePoint"/>
                        <mxPoint x="454" y="200" as="targetPoint"/>
                    </mxGeometry>
                </mxCell>
                <mxCell id="q40dijsxq2S9NQWSFBcL-13" value="&amp;lt;&amp;lt;extend&amp;gt;&amp;gt;" style="html=1;verticalAlign=bottom;labelBackgroundColor=none;endArrow=open;endFill=0;dashed=1;entryX=0.274;entryY=0.986;entryDx=0;entryDy=0;startArrow=none;exitX=0.5;exitY=0;exitDx=0;exitDy=0;entryPerimeter=0;" edge="1" parent="q40dijsxq2S9NQWSFBcL-1" source="q40dijsxq2S9NQWSFBcL-9" target="q40dijsxq2S9NQWSFBcL-5">
                    <mxGeometry width="160" relative="1" as="geometry">
                        <mxPoint x="410" y="250" as="sourcePoint"/>
                        <mxPoint x="410" y="150" as="targetPoint"/>
                    </mxGeometry>
                </mxCell>
                <mxCell id="q40dijsxq2S9NQWSFBcL-14" value="&amp;lt;&amp;lt;extend&amp;gt;&amp;gt;" style="html=1;verticalAlign=bottom;labelBackgroundColor=none;endArrow=open;endFill=0;dashed=1;entryX=0.669;entryY=1.009;entryDx=0;entryDy=0;startArrow=none;entryPerimeter=0;" edge="1" parent="q40dijsxq2S9NQWSFBcL-1" source="q40dijsxq2S9NQWSFBcL-10" target="q40dijsxq2S9NQWSFBcL-5">
                    <mxGeometry width="160" relative="1" as="geometry">
                        <mxPoint x="410" y="250" as="sourcePoint"/>
                        <mxPoint x="410" y="150" as="targetPoint"/>
                    </mxGeometry>
                </mxCell>
                <mxCell id="q40dijsxq2S9NQWSFBcL-15" value="condition:&lt;br&gt;Kd. will Lieferung" style="html=1;" vertex="1" parent="q40dijsxq2S9NQWSFBcL-1">
                    <mxGeometry x="180" y="240" width="110" height="50" as="geometry"/>
                </mxCell>
                <mxCell id="q40dijsxq2S9NQWSFBcL-16" value="condition:&lt;br&gt;Kd. will selber &lt;br&gt;abholen" style="html=1;" vertex="1" parent="q40dijsxq2S9NQWSFBcL-1">
                    <mxGeometry x="550" y="240" width="110" height="70" as="geometry"/>
                </mxCell>
                <mxCell id="q40dijsxq2S9NQWSFBcL-17" value="" style="endArrow=none;startArrow=none;endFill=0;startFill=0;endSize=8;html=1;verticalAlign=bottom;labelBackgroundColor=none;strokeWidth=1;exitX=1;exitY=0.5;exitDx=0;exitDy=0;" edge="1" parent="q40dijsxq2S9NQWSFBcL-1" source="q40dijsxq2S9NQWSFBcL-19">
                    <mxGeometry width="160" relative="1" as="geometry">
                        <mxPoint x="380" y="190" as="sourcePoint"/>
                        <mxPoint x="350" y="310" as="targetPoint"/>
                    </mxGeometry>
                </mxCell>
                <mxCell id="q40dijsxq2S9NQWSFBcL-18" value="" style="endArrow=none;startArrow=none;endFill=0;startFill=0;endSize=8;html=1;verticalAlign=bottom;labelBackgroundColor=none;strokeWidth=1;entryX=0;entryY=0.5;entryDx=0;entryDy=0;" edge="1" parent="q40dijsxq2S9NQWSFBcL-1" source="q40dijsxq2S9NQWSFBcL-21" target="q40dijsxq2S9NQWSFBcL-16">
                    <mxGeometry width="160" relative="1" as="geometry">
                        <mxPoint x="500" y="300" as="sourcePoint"/>
                        <mxPoint x="454" y="190" as="targetPoint"/>
                    </mxGeometry>
                </mxCell>
                <mxCell id="q40dijsxq2S9NQWSFBcL-19" value="" style="ellipse;fillColor=#ffffff;strokeColor=#000000;" vertex="1" parent="q40dijsxq2S9NQWSFBcL-1">
                    <mxGeometry x="344" y="303" width="10" height="10" as="geometry"/>
                </mxCell>
                <mxCell id="q40dijsxq2S9NQWSFBcL-20" value="" style="endArrow=none;startArrow=none;endFill=0;startFill=0;endSize=8;html=1;verticalAlign=bottom;labelBackgroundColor=none;strokeWidth=1;exitX=1;exitY=0.5;exitDx=0;exitDy=0;" edge="1" parent="q40dijsxq2S9NQWSFBcL-1" source="q40dijsxq2S9NQWSFBcL-15" target="q40dijsxq2S9NQWSFBcL-19">
                    <mxGeometry width="160" relative="1" as="geometry">
                        <mxPoint x="290" y="265" as="sourcePoint"/>
                        <mxPoint x="350" y="310" as="targetPoint"/>
                    </mxGeometry>
                </mxCell>
                <mxCell id="q40dijsxq2S9NQWSFBcL-21" value="" style="ellipse;fillColor=#ffffff;strokeColor=#000000;" vertex="1" parent="q40dijsxq2S9NQWSFBcL-1">
                    <mxGeometry x="494.5" y="294" width="10" height="10" as="geometry"/>
                </mxCell>
                <mxCell id="q40dijsxq2S9NQWSFBcL-22" value="" style="endArrow=none;startArrow=none;endFill=0;startFill=0;endSize=8;html=1;verticalAlign=bottom;labelBackgroundColor=none;strokeWidth=1;entryX=0;entryY=0.5;entryDx=0;entryDy=0;" edge="1" parent="q40dijsxq2S9NQWSFBcL-1" target="q40dijsxq2S9NQWSFBcL-21">
                    <mxGeometry width="160" relative="1" as="geometry">
                        <mxPoint x="500" y="300" as="sourcePoint"/>
                        <mxPoint x="550" y="275" as="targetPoint"/>
                    </mxGeometry>
                </mxCell>
                <mxCell id="q40dijsxq2S9NQWSFBcL-23" value="SMS an Pizzeria" style="ellipse;whiteSpace=wrap;html=1;" vertex="1" parent="q40dijsxq2S9NQWSFBcL-1">
                    <mxGeometry x="250" y="530" width="140" height="70" as="geometry"/>
                </mxCell>
                <mxCell id="q40dijsxq2S9NQWSFBcL-24" value="" style="endArrow=none;startArrow=none;endFill=0;startFill=0;endSize=8;html=1;verticalAlign=bottom;labelBackgroundColor=none;strokeWidth=1;entryX=0;entryY=0.5;entryDx=0;entryDy=0;" edge="1" parent="q40dijsxq2S9NQWSFBcL-1" source="q40dijsxq2S9NQWSFBcL-3" target="q40dijsxq2S9NQWSFBcL-23">
                    <mxGeometry width="160" relative="1" as="geometry">
                        <mxPoint x="120" y="370" as="sourcePoint"/>
                        <mxPoint x="454" y="390" as="targetPoint"/>
                    </mxGeometry>
                </mxCell>
                <mxCell id="q40dijsxq2S9NQWSFBcL-25" value="&amp;lt;&amp;lt;include&amp;gt;&amp;gt;" style="html=1;verticalAlign=bottom;labelBackgroundColor=none;endArrow=open;endFill=0;dashed=1;exitX=0.5;exitY=1;exitDx=0;exitDy=0;entryX=0.5;entryY=0;entryDx=0;entryDy=0;" edge="1" parent="q40dijsxq2S9NQWSFBcL-1" source="q40dijsxq2S9NQWSFBcL-9" target="q40dijsxq2S9NQWSFBcL-23">
                    <mxGeometry width="160" relative="1" as="geometry">
                        <mxPoint x="410" y="340" as="sourcePoint"/>
                        <mxPoint x="410" y="440" as="targetPoint"/>
                    </mxGeometry>
                </mxCell>
            </root>
        </mxGraphModel>
    </diagram>
    <diagram id="TtzVyfM_FEAYwdQ9rfqB" name="4_Gesamt">
        <mxGraphModel dx="1230" dy="538" grid="1" gridSize="10" guides="1" tooltips="1" connect="1" arrows="1" fold="1" page="1" pageScale="1" pageWidth="827" pageHeight="1169" math="0" shadow="0">
            <root>
                <mxCell id="gNkBDmaVNta7KgbNzsTR-0"/>
                <mxCell id="gNkBDmaVNta7KgbNzsTR-1" parent="gNkBDmaVNta7KgbNzsTR-0"/>
                <mxCell id="gNkBDmaVNta7KgbNzsTR-2" value="Pizzeria" style="shape=umlFrame;whiteSpace=wrap;html=1;" vertex="1" parent="gNkBDmaVNta7KgbNzsTR-1">
                    <mxGeometry x="150" y="20" width="450" height="660" as="geometry"/>
                </mxCell>
                <mxCell id="gNkBDmaVNta7KgbNzsTR-3" value="Bestellanruf" style="ellipse;whiteSpace=wrap;html=1;" vertex="1" parent="gNkBDmaVNta7KgbNzsTR-1">
                    <mxGeometry x="300" y="30" width="120" height="60" as="geometry"/>
                </mxCell>
                <mxCell id="gNkBDmaVNta7KgbNzsTR-4" value="Bestellung &lt;br&gt;aufnehmen" style="ellipse;whiteSpace=wrap;html=1;" vertex="1" parent="gNkBDmaVNta7KgbNzsTR-1">
                    <mxGeometry x="350" y="250" width="110" height="60" as="geometry"/>
                </mxCell>
                <mxCell id="gNkBDmaVNta7KgbNzsTR-5" value="Auslieferung" style="ellipse;whiteSpace=wrap;html=1;" vertex="1" parent="gNkBDmaVNta7KgbNzsTR-1">
                    <mxGeometry x="250" y="400" width="110" height="60" as="geometry"/>
                </mxCell>
                <mxCell id="gNkBDmaVNta7KgbNzsTR-6" value="Selbstabholung" style="ellipse;whiteSpace=wrap;html=1;" vertex="1" parent="gNkBDmaVNta7KgbNzsTR-1">
                    <mxGeometry x="380" y="490" width="110" height="60" as="geometry"/>
                </mxCell>
                <mxCell id="gNkBDmaVNta7KgbNzsTR-7" value="SMS senden" style="ellipse;whiteSpace=wrap;html=1;" vertex="1" parent="gNkBDmaVNta7KgbNzsTR-1">
                    <mxGeometry x="250" y="600" width="110" height="60" as="geometry"/>
                </mxCell>
                <mxCell id="gNkBDmaVNta7KgbNzsTR-8" value="Kunde" style="shape=umlActor;verticalLabelPosition=bottom;verticalAlign=top;html=1;" vertex="1" parent="gNkBDmaVNta7KgbNzsTR-1">
                    <mxGeometry x="750" y="230" width="30" height="60" as="geometry"/>
                </mxCell>
                <mxCell id="gNkBDmaVNta7KgbNzsTR-9" value="Fahrer" style="shape=umlActor;verticalLabelPosition=bottom;verticalAlign=top;html=1;" vertex="1" parent="gNkBDmaVNta7KgbNzsTR-1">
                    <mxGeometry x="80" y="500" width="30" height="60" as="geometry"/>
                </mxCell>
                <mxCell id="gNkBDmaVNta7KgbNzsTR-10" value="Mitarbeiter" style="shape=umlActor;verticalLabelPosition=bottom;verticalAlign=top;html=1;" vertex="1" parent="gNkBDmaVNta7KgbNzsTR-1">
                    <mxGeometry x="60" y="90" width="30" height="60" as="geometry"/>
                </mxCell>
                <mxCell id="gNkBDmaVNta7KgbNzsTR-11" value="condition:&lt;br&gt;&amp;gt; Lieferung" style="html=1;" vertex="1" parent="gNkBDmaVNta7KgbNzsTR-1">
                    <mxGeometry x="170" y="310" width="110" height="50" as="geometry"/>
                </mxCell>
                <mxCell id="gNkBDmaVNta7KgbNzsTR-12" value="" style="endArrow=none;startArrow=none;endFill=0;startFill=0;endSize=8;html=1;verticalAlign=bottom;labelBackgroundColor=none;strokeWidth=1;exitX=1;exitY=0.5;exitDx=0;exitDy=0;entryX=0;entryY=0.3333333333333333;entryDx=0;entryDy=0;entryPerimeter=0;" edge="1" parent="gNkBDmaVNta7KgbNzsTR-1" source="gNkBDmaVNta7KgbNzsTR-3" target="gNkBDmaVNta7KgbNzsTR-8">
                    <mxGeometry width="160" relative="1" as="geometry">
                        <mxPoint x="414" y="199" as="sourcePoint"/>
                        <mxPoint x="550" y="150" as="targetPoint"/>
                    </mxGeometry>
                </mxCell>
                <mxCell id="gNkBDmaVNta7KgbNzsTR-13" value="" style="endArrow=none;startArrow=none;endFill=0;startFill=0;endSize=8;html=1;verticalAlign=bottom;labelBackgroundColor=none;strokeWidth=1;exitX=1;exitY=0.5;exitDx=0;exitDy=0;entryX=0;entryY=0.3333333333333333;entryDx=0;entryDy=0;entryPerimeter=0;" edge="1" parent="gNkBDmaVNta7KgbNzsTR-1" source="gNkBDmaVNta7KgbNzsTR-4" target="gNkBDmaVNta7KgbNzsTR-8">
                    <mxGeometry width="160" relative="1" as="geometry">
                        <mxPoint x="610" y="10" as="sourcePoint"/>
                        <mxPoint x="700" y="150" as="targetPoint"/>
                    </mxGeometry>
                </mxCell>
                <mxCell id="gNkBDmaVNta7KgbNzsTR-14" value="" style="endArrow=none;startArrow=none;endFill=0;startFill=0;endSize=8;html=1;verticalAlign=bottom;labelBackgroundColor=none;strokeWidth=1;entryX=0;entryY=0.5;entryDx=0;entryDy=0;exitX=1;exitY=0.3333333333333333;exitDx=0;exitDy=0;exitPerimeter=0;" edge="1" parent="gNkBDmaVNta7KgbNzsTR-1" source="gNkBDmaVNta7KgbNzsTR-10" target="gNkBDmaVNta7KgbNzsTR-3">
                    <mxGeometry width="160" relative="1" as="geometry">
                        <mxPoint x="410" y="90" as="sourcePoint"/>
                        <mxPoint x="280" y="80" as="targetPoint"/>
                    </mxGeometry>
                </mxCell>
                <mxCell id="gNkBDmaVNta7KgbNzsTR-15" value="&amp;lt;&amp;lt;include&amp;gt;&amp;gt;" style="html=1;verticalAlign=bottom;labelBackgroundColor=none;endArrow=open;endFill=0;dashed=1;exitX=0.5;exitY=1;exitDx=0;exitDy=0;entryX=0.5;entryY=0;entryDx=0;entryDy=0;" edge="1" parent="gNkBDmaVNta7KgbNzsTR-1" source="gNkBDmaVNta7KgbNzsTR-3" target="gNkBDmaVNta7KgbNzsTR-4">
                    <mxGeometry width="160" relative="1" as="geometry">
                        <mxPoint x="35" y="260" as="sourcePoint"/>
                        <mxPoint x="195" y="260" as="targetPoint"/>
                    </mxGeometry>
                </mxCell>
                <mxCell id="gNkBDmaVNta7KgbNzsTR-16" value="&amp;lt;&amp;lt;extend&amp;gt;&amp;gt;" style="html=1;verticalAlign=bottom;labelBackgroundColor=none;endArrow=open;endFill=0;dashed=1;entryX=0.407;entryY=0.986;entryDx=0;entryDy=0;entryPerimeter=0;exitX=0.5;exitY=0;exitDx=0;exitDy=0;" edge="1" parent="gNkBDmaVNta7KgbNzsTR-1" source="gNkBDmaVNta7KgbNzsTR-5" target="gNkBDmaVNta7KgbNzsTR-4">
                    <mxGeometry width="160" relative="1" as="geometry">
                        <mxPoint x="50" y="319.5" as="sourcePoint"/>
                        <mxPoint x="210" y="319.5" as="targetPoint"/>
                    </mxGeometry>
                </mxCell>
                <mxCell id="gNkBDmaVNta7KgbNzsTR-17" value="&amp;lt;&amp;lt;extend&amp;gt;&amp;gt;" style="html=1;verticalAlign=bottom;labelBackgroundColor=none;endArrow=open;endFill=0;dashed=1;entryX=0.288;entryY=0.991;entryDx=0;entryDy=0;entryPerimeter=0;exitX=0.5;exitY=0;exitDx=0;exitDy=0;" edge="1" parent="gNkBDmaVNta7KgbNzsTR-1" source="gNkBDmaVNta7KgbNzsTR-25" target="gNkBDmaVNta7KgbNzsTR-3">
                    <mxGeometry width="160" relative="1" as="geometry">
                        <mxPoint x="19.019999999999982" y="308.5" as="sourcePoint"/>
                        <mxPoint x="120" y="240" as="targetPoint"/>
                    </mxGeometry>
                </mxCell>
                <mxCell id="gNkBDmaVNta7KgbNzsTR-18" value="&amp;lt;&amp;lt;extend&amp;gt;&amp;gt;" style="html=1;verticalAlign=bottom;labelBackgroundColor=none;endArrow=open;endFill=0;dashed=1;entryX=0.5;entryY=1;entryDx=0;entryDy=0;exitX=0.5;exitY=0;exitDx=0;exitDy=0;" edge="1" parent="gNkBDmaVNta7KgbNzsTR-1" source="gNkBDmaVNta7KgbNzsTR-6" target="gNkBDmaVNta7KgbNzsTR-4">
                    <mxGeometry width="160" relative="1" as="geometry">
                        <mxPoint x="380" y="338.5" as="sourcePoint"/>
                        <mxPoint x="480.98" y="270" as="targetPoint"/>
                    </mxGeometry>
                </mxCell>
                <mxCell id="gNkBDmaVNta7KgbNzsTR-19" value="condition:&lt;br&gt;&amp;gt; Selbst abholen" style="html=1;" vertex="1" parent="gNkBDmaVNta7KgbNzsTR-1">
                    <mxGeometry x="460" y="380" width="110" height="50" as="geometry"/>
                </mxCell>
                <mxCell id="gNkBDmaVNta7KgbNzsTR-20" value="" style="endArrow=none;startArrow=none;endFill=0;startFill=0;endSize=8;html=1;verticalAlign=bottom;labelBackgroundColor=none;strokeWidth=1;entryX=0;entryY=0.5;entryDx=0;entryDy=0;" edge="1" parent="gNkBDmaVNta7KgbNzsTR-1" target="gNkBDmaVNta7KgbNzsTR-19">
                    <mxGeometry width="160" relative="1" as="geometry">
                        <mxPoint x="420" y="410" as="sourcePoint"/>
                        <mxPoint x="770" y="90" as="targetPoint"/>
                    </mxGeometry>
                </mxCell>
                <mxCell id="gNkBDmaVNta7KgbNzsTR-21" value="" style="endArrow=none;startArrow=none;endFill=0;startFill=0;endSize=8;html=1;verticalAlign=bottom;labelBackgroundColor=none;strokeWidth=1;entryX=1;entryY=0.5;entryDx=0;entryDy=0;exitX=0;exitY=0;exitDx=0;exitDy=0;" edge="1" parent="gNkBDmaVNta7KgbNzsTR-1" source="gNkBDmaVNta7KgbNzsTR-32" target="gNkBDmaVNta7KgbNzsTR-11">
                    <mxGeometry width="160" relative="1" as="geometry">
                        <mxPoint x="320" y="380" as="sourcePoint"/>
                        <mxPoint x="550" y="275" as="targetPoint"/>
                    </mxGeometry>
                </mxCell>
                <mxCell id="gNkBDmaVNta7KgbNzsTR-22" value="&amp;lt;&amp;lt;include&amp;gt;&amp;gt;" style="html=1;verticalAlign=bottom;labelBackgroundColor=none;endArrow=open;endFill=0;dashed=1;entryX=0.5;entryY=0;entryDx=0;entryDy=0;" edge="1" parent="gNkBDmaVNta7KgbNzsTR-1" source="gNkBDmaVNta7KgbNzsTR-5" target="gNkBDmaVNta7KgbNzsTR-7">
                    <mxGeometry width="160" relative="1" as="geometry">
                        <mxPoint x="120" y="160" as="sourcePoint"/>
                        <mxPoint x="164.99" y="241.44000000000005" as="targetPoint"/>
                    </mxGeometry>
                </mxCell>
                <mxCell id="gNkBDmaVNta7KgbNzsTR-23" value="" style="endArrow=none;startArrow=none;endFill=0;startFill=0;endSize=8;html=1;verticalAlign=bottom;labelBackgroundColor=none;strokeWidth=1;entryX=0;entryY=0.5;entryDx=0;entryDy=0;exitX=1;exitY=0.3333333333333333;exitDx=0;exitDy=0;exitPerimeter=0;" edge="1" parent="gNkBDmaVNta7KgbNzsTR-1" source="gNkBDmaVNta7KgbNzsTR-9" target="gNkBDmaVNta7KgbNzsTR-7">
                    <mxGeometry width="160" relative="1" as="geometry">
                        <mxPoint x="250" y="560" as="sourcePoint"/>
                        <mxPoint x="230" y="530" as="targetPoint"/>
                    </mxGeometry>
                </mxCell>
                <mxCell id="gNkBDmaVNta7KgbNzsTR-24" value="" style="endArrow=none;startArrow=none;endFill=0;startFill=0;endSize=8;html=1;verticalAlign=bottom;labelBackgroundColor=none;strokeWidth=1;entryX=0;entryY=0.5;entryDx=0;entryDy=0;exitX=1;exitY=0.3333333333333333;exitDx=0;exitDy=0;exitPerimeter=0;" edge="1" parent="gNkBDmaVNta7KgbNzsTR-1" source="gNkBDmaVNta7KgbNzsTR-9" target="gNkBDmaVNta7KgbNzsTR-5">
                    <mxGeometry width="160" relative="1" as="geometry">
                        <mxPoint x="150" y="420" as="sourcePoint"/>
                        <mxPoint x="270" y="530" as="targetPoint"/>
                    </mxGeometry>
                </mxCell>
                <mxCell id="gNkBDmaVNta7KgbNzsTR-25" value="Kundendaten &lt;br&gt;erfassen" style="ellipse;whiteSpace=wrap;html=1;" vertex="1" parent="gNkBDmaVNta7KgbNzsTR-1">
                    <mxGeometry x="230" y="170" width="120" height="40" as="geometry"/>
                </mxCell>
                <mxCell id="gNkBDmaVNta7KgbNzsTR-26" value="" style="endArrow=none;startArrow=none;endFill=0;startFill=0;endSize=8;html=1;verticalAlign=bottom;labelBackgroundColor=none;strokeWidth=1;entryX=0;entryY=0.5;entryDx=0;entryDy=0;exitX=1;exitY=0.3333333333333333;exitDx=0;exitDy=0;exitPerimeter=0;" edge="1" parent="gNkBDmaVNta7KgbNzsTR-1" source="gNkBDmaVNta7KgbNzsTR-10" target="gNkBDmaVNta7KgbNzsTR-25">
                    <mxGeometry width="160" relative="1" as="geometry">
                        <mxPoint x="100" y="120" as="sourcePoint"/>
                        <mxPoint x="310" y="70" as="targetPoint"/>
                    </mxGeometry>
                </mxCell>
                <mxCell id="gNkBDmaVNta7KgbNzsTR-27" value="" style="endArrow=none;startArrow=none;endFill=0;startFill=0;endSize=8;html=1;verticalAlign=bottom;labelBackgroundColor=none;strokeWidth=1;exitX=1;exitY=0.5;exitDx=0;exitDy=0;entryX=0;entryY=0.3333333333333333;entryDx=0;entryDy=0;entryPerimeter=0;" edge="1" parent="gNkBDmaVNta7KgbNzsTR-1" source="gNkBDmaVNta7KgbNzsTR-25" target="gNkBDmaVNta7KgbNzsTR-8">
                    <mxGeometry width="160" relative="1" as="geometry">
                        <mxPoint x="430" y="70" as="sourcePoint"/>
                        <mxPoint x="700" y="150" as="targetPoint"/>
                    </mxGeometry>
                </mxCell>
                <mxCell id="gNkBDmaVNta7KgbNzsTR-28" value="condition:&lt;br&gt;Kunde neu" style="html=1;" vertex="1" parent="gNkBDmaVNta7KgbNzsTR-1">
                    <mxGeometry x="180" y="100" width="80" height="40" as="geometry"/>
                </mxCell>
                <mxCell id="gNkBDmaVNta7KgbNzsTR-29" value="" style="endArrow=none;startArrow=none;endFill=0;startFill=0;endSize=8;html=1;verticalAlign=bottom;labelBackgroundColor=none;strokeWidth=1;exitX=1;exitY=0.5;exitDx=0;exitDy=0;entryX=0;entryY=0.5;entryDx=0;entryDy=0;" edge="1" parent="gNkBDmaVNta7KgbNzsTR-1" source="gNkBDmaVNta7KgbNzsTR-28" target="gNkBDmaVNta7KgbNzsTR-34">
                    <mxGeometry width="160" relative="1" as="geometry">
                        <mxPoint x="430" y="70" as="sourcePoint"/>
                        <mxPoint x="300" y="150" as="targetPoint"/>
                    </mxGeometry>
                </mxCell>
                <mxCell id="gNkBDmaVNta7KgbNzsTR-30" value="" style="endArrow=none;startArrow=none;endFill=0;startFill=0;endSize=8;html=1;verticalAlign=bottom;labelBackgroundColor=none;strokeWidth=1;entryX=0;entryY=0.5;entryDx=0;entryDy=0;" edge="1" parent="gNkBDmaVNta7KgbNzsTR-1" target="gNkBDmaVNta7KgbNzsTR-4">
                    <mxGeometry width="160" relative="1" as="geometry">
                        <mxPoint x="90" y="110" as="sourcePoint"/>
                        <mxPoint x="210" y="260" as="targetPoint"/>
                        <Array as="points">
                            <mxPoint x="160" y="270"/>
                        </Array>
                    </mxGeometry>
                </mxCell>
                <mxCell id="gNkBDmaVNta7KgbNzsTR-31" value="" style="endArrow=none;startArrow=none;endFill=0;startFill=0;endSize=8;html=1;verticalAlign=bottom;labelBackgroundColor=none;strokeWidth=1;exitX=1;exitY=0.5;exitDx=0;exitDy=0;" edge="1" parent="gNkBDmaVNta7KgbNzsTR-1" source="gNkBDmaVNta7KgbNzsTR-6">
                    <mxGeometry width="160" relative="1" as="geometry">
                        <mxPoint x="560" y="500" as="sourcePoint"/>
                        <mxPoint x="750" y="250" as="targetPoint"/>
                        <Array as="points">
                            <mxPoint x="710" y="450"/>
                        </Array>
                    </mxGeometry>
                </mxCell>
                <mxCell id="gNkBDmaVNta7KgbNzsTR-32" value="" style="ellipse;fillColor=#ffffff;strokeColor=#000000;" vertex="1" parent="gNkBDmaVNta7KgbNzsTR-1">
                    <mxGeometry x="320" y="380" width="10" height="10" as="geometry"/>
                </mxCell>
                <mxCell id="gNkBDmaVNta7KgbNzsTR-33" value="" style="ellipse;fillColor=#ffffff;strokeColor=#000000;" vertex="1" parent="gNkBDmaVNta7KgbNzsTR-1">
                    <mxGeometry x="414" y="405" width="10" height="10" as="geometry"/>
                </mxCell>
                <mxCell id="gNkBDmaVNta7KgbNzsTR-34" value="" style="ellipse;fillColor=#ffffff;strokeColor=#000000;" vertex="1" parent="gNkBDmaVNta7KgbNzsTR-1">
                    <mxGeometry x="300" y="140" width="10" height="10" as="geometry"/>
                </mxCell>
                <mxCell id="gNkBDmaVNta7KgbNzsTR-35" value="" style="endArrow=none;startArrow=none;endFill=0;startFill=0;endSize=8;html=1;verticalAlign=bottom;labelBackgroundColor=none;strokeWidth=1;entryX=0;entryY=0.5;entryDx=0;entryDy=0;" edge="1" parent="gNkBDmaVNta7KgbNzsTR-1" target="gNkBDmaVNta7KgbNzsTR-5">
                    <mxGeometry width="160" relative="1" as="geometry">
                        <mxPoint x="90" y="110" as="sourcePoint"/>
                        <mxPoint x="110" y="440" as="targetPoint"/>
                        <Array as="points">
                            <mxPoint x="120" y="370"/>
                        </Array>
                    </mxGeometry>
                </mxCell>
                <mxCell id="gNkBDmaVNta7KgbNzsTR-36" value="" style="endArrow=none;startArrow=none;endFill=0;startFill=0;endSize=8;html=1;verticalAlign=bottom;labelBackgroundColor=none;strokeWidth=1;entryX=0;entryY=0.5;entryDx=0;entryDy=0;" edge="1" parent="gNkBDmaVNta7KgbNzsTR-1" target="gNkBDmaVNta7KgbNzsTR-6">
                    <mxGeometry width="160" relative="1" as="geometry">
                        <mxPoint x="90" y="110" as="sourcePoint"/>
                        <mxPoint x="40" y="470" as="targetPoint"/>
                        <Array as="points">
                            <mxPoint x="100" y="460"/>
                        </Array>
                    </mxGeometry>
                </mxCell>
            </root>
        </mxGraphModel>
    </diagram>
</mxfile>